{
	"asset":{
		"generator":"Khronos glTF Blender I/O v4.1.63",
		"version":"2.0"
	},
	"scene":0,
	"scenes":[
		{
			"name":"Scene",
			"nodes":[
				0,
				1,
				2,
				3,
				4,
				5,
				6,
				7,
				8,
				9,
				10,
				11,
				12,
				13,
				14,
				15,
				16,
				17,
				18,
				19,
				20,
				21
			]
		}
	],
	"nodes":[
		{
			"mesh":0,
			"name":"Cube",
			"scale":[
				0.8749513030052185,
				1,
				1
			],
			"translation":[
				0,
				16.523767471313477,
				0
			]
		},
		{
			"mesh":1,
			"name":"Cylinder",
			"rotation":[
				0,
				0,
				-0.7071068286895752,
				0.7071068286895752
			],
			"scale":[
				1,
				2.448312759399414,
				1
			],
			"translation":[
				0,
				16.523767471313477,
				0
			]
		},
		{
			"mesh":2,
			"name":"Cube.016",
			"translation":[
				0,
				16.523767471313477,
				0
			]
		},
		{
			"mesh":3,
			"name":"Circle.002",
			"translation":[
				0,
				16.523767471313477,
				0
			]
		},
		{
			"mesh":4,
			"name":"Circle.003",
			"rotation":[
				0.7071068286895752,
				0,
				0,
				0.7071068286895752
			],
			"translation":[
				0,
				16.523767471313477,
				0
			]
		},
		{
			"mesh":5,
			"name":"Circle.004",
			"rotation":[
				-1,
				0,
				0,
				1.6292068494294654e-07
			],
			"translation":[
				0,
				16.523767471313477,
				0
			]
		},
		{
			"mesh":6,
			"name":"Circle.005",
			"rotation":[
				-0.7071065902709961,
				0,
				0,
				0.7071069478988647
			],
			"translation":[
				0,
				16.523767471313477,
				0
			]
		},
		{
			"mesh":7,
			"name":"Cube.001",
			"rotation":[
				-0.19509032368659973,
				0,
				0,
				0.9807853102684021
			],
			"scale":[
				0.8749513030052185,
				1,
				1
			],
			"translation":[
				0,
				16.523767471313477,
				0
			]
		},
		{
			"mesh":8,
			"name":"Cube.002",
			"rotation":[
				-0.3826834559440613,
				0,
				0,
				0.9238795042037964
			],
			"scale":[
				0.8749513030052185,
				1,
				1
			],
			"translation":[
				0,
				16.523767471313477,
				0
			]
		},
		{
			"mesh":9,
			"name":"Cube.003",
			"rotation":[
				-0.5555703639984131,
				0,
				0,
				0.8314696550369263
			],
			"scale":[
				0.8749513030052185,
				1,
				1
			],
			"translation":[
				0,
				16.523767471313477,
				0
			]
		},
		{
			"mesh":10,
			"name":"Cube.004",
			"rotation":[
				-0.7071068286895752,
				0,
				0,
				0.7071068286895752
			],
			"scale":[
				0.8749513030052185,
				1,
				1
			],
			"translation":[
				0,
				16.523767471313477,
				0
			]
		},
		{
			"mesh":11,
			"name":"Cube.005",
			"rotation":[
				-0.8314696550369263,
				0,
				0,
				0.5555701851844788
			],
			"scale":[
				0.8749513030052185,
				1,
				1
			],
			"translation":[
				0,
				16.523767471313477,
				0
			]
		},
		{
			"mesh":12,
			"name":"Cube.006",
			"rotation":[
				-0.9238796234130859,
				0,
				0,
				0.38268330693244934
			],
			"scale":[
				0.8749513030052185,
				1,
				1
			],
			"translation":[
				0,
				16.523767471313477,
				0
			]
		},
		{
			"mesh":13,
			"name":"Cube.007",
			"rotation":[
				-0.9807853102684021,
				0,
				0,
				0.19509023427963257
			],
			"scale":[
				0.8749513030052185,
				1,
				1
			],
			"translation":[
				0,
				16.523767471313477,
				0
			]
		},
		{
			"mesh":14,
			"name":"Cube.008",
			"rotation":[
				1,
				0,
				0,
				1.6292068494294654e-07
			],
			"scale":[
				0.8749513030052185,
				1,
				1
			],
			"translation":[
				0,
				16.523767471313477,
				0
			]
		},
		{
			"mesh":15,
			"name":"Cube.009",
			"rotation":[
				0.9807852506637573,
				0,
				0,
				0.19509045779705048
			],
			"scale":[
				0.8749513030052185,
				1,
				1
			],
			"translation":[
				0,
				16.523767471313477,
				0
			]
		},
		{
			"mesh":16,
			"name":"Cube.010",
			"rotation":[
				0.9238795042037964,
				0,
				0,
				0.3826836049556732
			],
			"scale":[
				0.8749513030052185,
				1,
				1
			],
			"translation":[
				0,
				16.523767471313477,
				0
			]
		},
		{
			"mesh":17,
			"name":"Cube.011",
			"rotation":[
				0.8314694762229919,
				0,
				0,
				0.5555704236030579
			],
			"scale":[
				0.8749513030052185,
				1,
				1
			],
			"translation":[
				0,
				16.523767471313477,
				0
			]
		},
		{
			"mesh":18,
			"name":"Cube.012",
			"rotation":[
				0.7071065902709961,
				0,
				0,
				0.7071069478988647
			],
			"scale":[
				0.8749513030052185,
				1,
				1
			],
			"translation":[
				0,
				16.523767471313477,
				0
			]
		},
		{
			"mesh":19,
			"name":"Cube.013",
			"rotation":[
				0.5555701851844788,
				0,
				0,
				0.8314696550369263
			],
			"scale":[
				0.8749513030052185,
				1,
				1
			],
			"translation":[
				0,
				16.523767471313477,
				0
			]
		},
		{
			"mesh":20,
			"name":"Cube.014",
			"rotation":[
				0.38268306851387024,
				0,
				0,
				0.9238796830177307
			],
			"scale":[
				0.8749513030052185,
				1,
				1
			],
			"translation":[
				0,
				16.523767471313477,
				0
			]
		},
		{
			"mesh":21,
			"name":"Cube.015",
			"rotation":[
				0.19509011507034302,
				0,
				0,
				0.9807854294776917
			],
			"scale":[
				0.8749513030052185,
				1,
				1
			],
			"translation":[
				0,
				16.523767471313477,
				0
			]
		}
	],
	"materials":[
		{
			"doubleSided":true,
			"emissiveFactor":[
				0.5,
				0.5,
				0.5
			],
			"emissiveTexture":{
				"index":0
			},
			"name":"Circel_MAT",
			"pbrMetallicRoughness":{
				"baseColorTexture":{
					"index":1
				},
				"metallicFactor":0,
				"roughnessFactor":0.5
			}
		}
	],
	"meshes":[
		{
			"name":"Cube.001",
			"primitives":[
				{
					"attributes":{
						"POSITION":0,
						"TEXCOORD_0":1
					},
					"indices":2,
					"material":0
				}
			]
		},
		{
			"name":"Cylinder",
			"primitives":[
				{
					"attributes":{
						"POSITION":3,
						"TEXCOORD_0":4
					},
					"indices":5,
					"material":0
				}
			]
		},
		{
			"name":"Cube.017",
			"primitives":[
				{
					"attributes":{
						"POSITION":6,
						"TEXCOORD_0":7
					},
					"indices":8,
					"material":0
				}
			]
		},
		{
			"name":"Circle.004",
			"primitives":[
				{
					"attributes":{
						"POSITION":9,
						"TEXCOORD_0":10
					},
					"indices":11,
					"material":0
				}
			]
		},
		{
			"name":"Circle.005",
			"primitives":[
				{
					"attributes":{
						"POSITION":12,
						"TEXCOORD_0":13
					},
					"indices":11,
					"material":0
				}
			]
		},
		{
			"name":"Circle.006",
			"primitives":[
				{
					"attributes":{
						"POSITION":14,
						"TEXCOORD_0":15
					},
					"indices":11,
					"material":0
				}
			]
		},
		{
			"name":"Circle.007",
			"primitives":[
				{
					"attributes":{
						"POSITION":16,
						"TEXCOORD_0":17
					},
					"indices":11,
					"material":0
				}
			]
		},
		{
			"name":"Cube.018",
			"primitives":[
				{
					"attributes":{
						"POSITION":18,
						"TEXCOORD_0":19
					},
					"indices":2,
					"material":0
				}
			]
		},
		{
			"name":"Cube.019",
			"primitives":[
				{
					"attributes":{
						"POSITION":20,
						"TEXCOORD_0":21
					},
					"indices":2,
					"material":0
				}
			]
		},
		{
			"name":"Cube.020",
			"primitives":[
				{
					"attributes":{
						"POSITION":22,
						"TEXCOORD_0":23
					},
					"indices":2,
					"material":0
				}
			]
		},
		{
			"name":"Cube.021",
			"primitives":[
				{
					"attributes":{
						"POSITION":24,
						"TEXCOORD_0":25
					},
					"indices":2,
					"material":0
				}
			]
		},
		{
			"name":"Cube.022",
			"primitives":[
				{
					"attributes":{
						"POSITION":26,
						"TEXCOORD_0":27
					},
					"indices":2,
					"material":0
				}
			]
		},
		{
			"name":"Cube.023",
			"primitives":[
				{
					"attributes":{
						"POSITION":28,
						"TEXCOORD_0":29
					},
					"indices":2,
					"material":0
				}
			]
		},
		{
			"name":"Cube.024",
			"primitives":[
				{
					"attributes":{
						"POSITION":30,
						"TEXCOORD_0":31
					},
					"indices":2,
					"material":0
				}
			]
		},
		{
			"name":"Cube.025",
			"primitives":[
				{
					"attributes":{
						"POSITION":32,
						"TEXCOORD_0":33
					},
					"indices":2,
					"material":0
				}
			]
		},
		{
			"name":"Cube.026",
			"primitives":[
				{
					"attributes":{
						"POSITION":34,
						"TEXCOORD_0":35
					},
					"indices":2,
					"material":0
				}
			]
		},
		{
			"name":"Cube.027",
			"primitives":[
				{
					"attributes":{
						"POSITION":36,
						"TEXCOORD_0":37
					},
					"indices":2,
					"material":0
				}
			]
		},
		{
			"name":"Cube.028",
			"primitives":[
				{
					"attributes":{
						"POSITION":38,
						"TEXCOORD_0":39
					},
					"indices":2,
					"material":0
				}
			]
		},
		{
			"name":"Cube.029",
			"primitives":[
				{
					"attributes":{
						"POSITION":40,
						"TEXCOORD_0":41
					},
					"indices":2,
					"material":0
				}
			]
		},
		{
			"name":"Cube.030",
			"primitives":[
				{
					"attributes":{
						"POSITION":42,
						"TEXCOORD_0":43
					},
					"indices":2,
					"material":0
				}
			]
		},
		{
			"name":"Cube.031",
			"primitives":[
				{
					"attributes":{
						"POSITION":44,
						"TEXCOORD_0":45
					},
					"indices":2,
					"material":0
				}
			]
		},
		{
			"name":"Cube.032",
			"primitives":[
				{
					"attributes":{
						"POSITION":46,
						"TEXCOORD_0":47
					},
					"indices":2,
					"material":0
				}
			]
		}
	],
	"textures":[
		{
			"sampler":0,
			"source":0
		},
		{
			"sampler":0,
			"source":0
		}
	],
	"images":[
		{
			"mimeType":"image/png",
			"name":"Circle_BaseColor_Emission",
			"uri":"Circle_BaseColor_Emission.png"
		}
	],
	"accessors":[
		{
			"bufferView":0,
			"componentType":5126,
			"count":204,
			"max":[
				1.9195727109909058,
				12.333902359008789,
				0.125
			],
			"min":[
				-1.9195727109909058,
				0.0007448196411132812,
				-0.125
			],
			"type":"VEC3"
		},
		{
			"bufferView":1,
			"componentType":5126,
			"count":204,
			"type":"VEC2"
		},
		{
			"bufferView":2,
			"componentType":5123,
			"count":360,
			"type":"SCALAR"
		},
		{
			"bufferView":3,
			"componentType":5126,
			"count":88,
			"max":[
				1,
				1,
				1
			],
			"min":[
				-1,
				-1,
				-1
			],
			"type":"VEC3"
		},
		{
			"bufferView":4,
			"componentType":5126,
			"count":88,
			"type":"VEC2"
		},
		{
			"bufferView":5,
			"componentType":5123,
			"count":276,
			"type":"SCALAR"
		},
		{
			"bufferView":6,
			"componentType":5126,
			"count":256,
			"max":[
				3.1469898223876953,
				-0.2995048761367798,
				12.871047019958496
			],
			"min":[
				-3.1469898223876953,
				-17.233287811279297,
				-12.871047019958496
			],
			"type":"VEC3"
		},
		{
			"bufferView":7,
			"componentType":5126,
			"count":256,
			"type":"VEC2"
		},
		{
			"bufferView":8,
			"componentType":5123,
			"count":576,
			"type":"SCALAR"
		},
		{
			"bufferView":9,
			"componentType":5126,
			"count":160,
			"max":[
				1.7384332418441772,
				2.192737902362296e-08,
				12.5
			],
			"min":[
				-1.7384332418441772,
				-12.5,
				-1.0588518660376123e-16
			],
			"type":"VEC3"
		},
		{
			"bufferView":10,
			"componentType":5126,
			"count":160,
			"type":"VEC2"
		},
		{
			"bufferView":11,
			"componentType":5123,
			"count":384,
			"type":"SCALAR"
		},
		{
			"bufferView":12,
			"componentType":5126,
			"count":160,
			"max":[
				1.7384332418441772,
				2.192737902362296e-08,
				12.5
			],
			"min":[
				-1.7384332418441772,
				-12.5,
				-1.0588518660376123e-16
			],
			"type":"VEC3"
		},
		{
			"bufferView":13,
			"componentType":5126,
			"count":160,
			"type":"VEC2"
		},
		{
			"bufferView":14,
			"componentType":5126,
			"count":160,
			"max":[
				1.7384332418441772,
				2.192737902362296e-08,
				12.5
			],
			"min":[
				-1.7384332418441772,
				-12.5,
				-1.0588518660376123e-16
			],
			"type":"VEC3"
		},
		{
			"bufferView":15,
			"componentType":5126,
			"count":160,
			"type":"VEC2"
		},
		{
			"bufferView":16,
			"componentType":5126,
			"count":160,
			"max":[
				1.7384332418441772,
				2.192737902362296e-08,
				12.5
			],
			"min":[
				-1.7384332418441772,
				-12.5,
				-1.0588518660376123e-16
			],
			"type":"VEC3"
		},
		{
			"bufferView":17,
			"componentType":5126,
			"count":160,
			"type":"VEC2"
		},
		{
			"bufferView":18,
			"componentType":5126,
			"count":204,
			"max":[
				1.9195727109909058,
				12.333902359008789,
				0.125
			],
			"min":[
				-1.9195727109909058,
				0.0007448196411132812,
				-0.125
			],
			"type":"VEC3"
		},
		{
			"bufferView":19,
			"componentType":5126,
			"count":204,
			"type":"VEC2"
		},
		{
			"bufferView":20,
			"componentType":5126,
			"count":204,
			"max":[
				1.9195727109909058,
				12.333902359008789,
				0.125
			],
			"min":[
				-1.9195727109909058,
				0.0007448196411132812,
				-0.125
			],
			"type":"VEC3"
		},
		{
			"bufferView":21,
			"componentType":5126,
			"count":204,
			"type":"VEC2"
		},
		{
			"bufferView":22,
			"componentType":5126,
			"count":204,
			"max":[
				1.9195727109909058,
				12.333902359008789,
				0.125
			],
			"min":[
				-1.9195727109909058,
				0.0007448196411132812,
				-0.125
			],
			"type":"VEC3"
		},
		{
			"bufferView":23,
			"componentType":5126,
			"count":204,
			"type":"VEC2"
		},
		{
			"bufferView":24,
			"componentType":5126,
			"count":204,
			"max":[
				1.9195727109909058,
				12.333902359008789,
				0.125
			],
			"min":[
				-1.9195727109909058,
				0.0007448196411132812,
				-0.125
			],
			"type":"VEC3"
		},
		{
			"bufferView":25,
			"componentType":5126,
			"count":204,
			"type":"VEC2"
		},
		{
			"bufferView":26,
			"componentType":5126,
			"count":204,
			"max":[
				1.9195727109909058,
				12.333902359008789,
				0.125
			],
			"min":[
				-1.9195727109909058,
				0.0007448196411132812,
				-0.125
			],
			"type":"VEC3"
		},
		{
			"bufferView":27,
			"componentType":5126,
			"count":204,
			"type":"VEC2"
		},
		{
			"bufferView":28,
			"componentType":5126,
			"count":204,
			"max":[
				1.9195727109909058,
				12.333902359008789,
				0.125
			],
			"min":[
				-1.9195727109909058,
				0.0007448196411132812,
				-0.125
			],
			"type":"VEC3"
		},
		{
			"bufferView":29,
			"componentType":5126,
			"count":204,
			"type":"VEC2"
		},
		{
			"bufferView":30,
			"componentType":5126,
			"count":204,
			"max":[
				1.9195727109909058,
				12.333902359008789,
				0.125
			],
			"min":[
				-1.9195727109909058,
				0.0007448196411132812,
				-0.125
			],
			"type":"VEC3"
		},
		{
			"bufferView":31,
			"componentType":5126,
			"count":204,
			"type":"VEC2"
		},
		{
			"bufferView":32,
			"componentType":5126,
			"count":204,
			"max":[
				1.9195727109909058,
				12.333902359008789,
				0.125
			],
			"min":[
				-1.9195727109909058,
				0.0007448196411132812,
				-0.125
			],
			"type":"VEC3"
		},
		{
			"bufferView":33,
			"componentType":5126,
			"count":204,
			"type":"VEC2"
		},
		{
			"bufferView":34,
			"componentType":5126,
			"count":204,
			"max":[
				1.9195727109909058,
				12.333902359008789,
				0.125
			],
			"min":[
				-1.9195727109909058,
				0.0007448196411132812,
				-0.125
			],
			"type":"VEC3"
		},
		{
			"bufferView":35,
			"componentType":5126,
			"count":204,
			"type":"VEC2"
		},
		{
			"bufferView":36,
			"componentType":5126,
			"count":204,
			"max":[
				1.9195727109909058,
				12.333902359008789,
				0.125
			],
			"min":[
				-1.9195727109909058,
				0.0007448196411132812,
				-0.125
			],
			"type":"VEC3"
		},
		{
			"bufferView":37,
			"componentType":5126,
			"count":204,
			"type":"VEC2"
		},
		{
			"bufferView":38,
			"componentType":5126,
			"count":204,
			"max":[
				1.9195727109909058,
				12.333902359008789,
				0.125
			],
			"min":[
				-1.9195727109909058,
				0.0007448196411132812,
				-0.125
			],
			"type":"VEC3"
		},
		{
			"bufferView":39,
			"componentType":5126,
			"count":204,
			"type":"VEC2"
		},
		{
			"bufferView":40,
			"componentType":5126,
			"count":204,
			"max":[
				1.9195727109909058,
				12.333902359008789,
				0.125
			],
			"min":[
				-1.9195727109909058,
				0.0007448196411132812,
				-0.125
			],
			"type":"VEC3"
		},
		{
			"bufferView":41,
			"componentType":5126,
			"count":204,
			"type":"VEC2"
		},
		{
			"bufferView":42,
			"componentType":5126,
			"count":204,
			"max":[
				1.9195727109909058,
				12.333902359008789,
				0.125
			],
			"min":[
				-1.9195727109909058,
				0.0007448196411132812,
				-0.125
			],
			"type":"VEC3"
		},
		{
			"bufferView":43,
			"componentType":5126,
			"count":204,
			"type":"VEC2"
		},
		{
			"bufferView":44,
			"componentType":5126,
			"count":204,
			"max":[
				1.9195727109909058,
				12.333902359008789,
				0.125
			],
			"min":[
				-1.9195727109909058,
				0.0007448196411132812,
				-0.125
			],
			"type":"VEC3"
		},
		{
			"bufferView":45,
			"componentType":5126,
			"count":204,
			"type":"VEC2"
		},
		{
			"bufferView":46,
			"componentType":5126,
			"count":204,
			"max":[
				1.9195727109909058,
				12.333902359008789,
				0.125
			],
			"min":[
				-1.9195727109909058,
				0.0007448196411132812,
				-0.125
			],
			"type":"VEC3"
		},
		{
			"bufferView":47,
			"componentType":5126,
			"count":204,
			"type":"VEC2"
		}
	],
	"bufferViews":[
		{
			"buffer":0,
			"byteLength":2448,
			"byteOffset":0,
			"target":34962
		},
		{
			"buffer":0,
			"byteLength":1632,
			"byteOffset":2448,
			"target":34962
		},
		{
			"buffer":0,
			"byteLength":720,
			"byteOffset":4080,
			"target":34963
		},
		{
			"buffer":0,
			"byteLength":1056,
			"byteOffset":4800,
			"target":34962
		},
		{
			"buffer":0,
			"byteLength":704,
			"byteOffset":5856,
			"target":34962
		},
		{
			"buffer":0,
			"byteLength":552,
			"byteOffset":6560,
			"target":34963
		},
		{
			"buffer":0,
			"byteLength":3072,
			"byteOffset":7112,
			"target":34962
		},
		{
			"buffer":0,
			"byteLength":2048,
			"byteOffset":10184,
			"target":34962
		},
		{
			"buffer":0,
			"byteLength":1152,
			"byteOffset":12232,
			"target":34963
		},
		{
			"buffer":0,
			"byteLength":1920,
			"byteOffset":13384,
			"target":34962
		},
		{
			"buffer":0,
			"byteLength":1280,
			"byteOffset":15304,
			"target":34962
		},
		{
			"buffer":0,
			"byteLength":768,
			"byteOffset":16584,
			"target":34963
		},
		{
			"buffer":0,
			"byteLength":1920,
			"byteOffset":17352,
			"target":34962
		},
		{
			"buffer":0,
			"byteLength":1280,
			"byteOffset":19272,
			"target":34962
		},
		{
			"buffer":0,
			"byteLength":1920,
			"byteOffset":20552,
			"target":34962
		},
		{
			"buffer":0,
			"byteLength":1280,
			"byteOffset":22472,
			"target":34962
		},
		{
			"buffer":0,
			"byteLength":1920,
			"byteOffset":23752,
			"target":34962
		},
		{
			"buffer":0,
			"byteLength":1280,
			"byteOffset":25672,
			"target":34962
		},
		{
			"buffer":0,
			"byteLength":2448,
			"byteOffset":26952,
			"target":34962
		},
		{
			"buffer":0,
			"byteLength":1632,
			"byteOffset":29400,
			"target":34962
		},
		{
			"buffer":0,
			"byteLength":2448,
			"byteOffset":31032,
			"target":34962
		},
		{
			"buffer":0,
			"byteLength":1632,
			"byteOffset":33480,
			"target":34962
		},
		{
			"buffer":0,
			"byteLength":2448,
			"byteOffset":35112,
			"target":34962
		},
		{
			"buffer":0,
			"byteLength":1632,
			"byteOffset":37560,
			"target":34962
		},
		{
			"buffer":0,
			"byteLength":2448,
			"byteOffset":39192,
			"target":34962
		},
		{
			"buffer":0,
			"byteLength":1632,
			"byteOffset":41640,
			"target":34962
		},
		{
			"buffer":0,
			"byteLength":2448,
			"byteOffset":43272,
			"target":34962
		},
		{
			"buffer":0,
			"byteLength":1632,
			"byteOffset":45720,
			"target":34962
		},
		{
			"buffer":0,
			"byteLength":2448,
			"byteOffset":47352,
			"target":34962
		},
		{
			"buffer":0,
			"byteLength":1632,
			"byteOffset":49800,
			"target":34962
		},
		{
			"buffer":0,
			"byteLength":2448,
			"byteOffset":51432,
			"target":34962
		},
		{
			"buffer":0,
			"byteLength":1632,
			"byteOffset":53880,
			"target":34962
		},
		{
			"buffer":0,
			"byteLength":2448,
			"byteOffset":55512,
			"target":34962
		},
		{
			"buffer":0,
			"byteLength":1632,
			"byteOffset":57960,
			"target":34962
		},
		{
			"buffer":0,
			"byteLength":2448,
			"byteOffset":59592,
			"target":34962
		},
		{
			"buffer":0,
			"byteLength":1632,
			"byteOffset":62040,
			"target":34962
		},
		{
			"buffer":0,
			"byteLength":2448,
			"byteOffset":63672,
			"target":34962
		},
		{
			"buffer":0,
			"byteLength":1632,
			"byteOffset":66120,
			"target":34962
		},
		{
			"buffer":0,
			"byteLength":2448,
			"byteOffset":67752,
			"target":34962
		},
		{
			"buffer":0,
			"byteLength":1632,
			"byteOffset":70200,
			"target":34962
		},
		{
			"buffer":0,
			"byteLength":2448,
			"byteOffset":71832,
			"target":34962
		},
		{
			"buffer":0,
			"byteLength":1632,
			"byteOffset":74280,
			"target":34962
		},
		{
			"buffer":0,
			"byteLength":2448,
			"byteOffset":75912,
			"target":34962
		},
		{
			"buffer":0,
			"byteLength":1632,
			"byteOffset":78360,
			"target":34962
		},
		{
			"buffer":0,
			"byteLength":2448,
			"byteOffset":79992,
			"target":34962
		},
		{
			"buffer":0,
			"byteLength":1632,
			"byteOffset":82440,
			"target":34962
		},
		{
			"buffer":0,
			"byteLength":2448,
			"byteOffset":84072,
			"target":34962
		},
		{
			"buffer":0,
			"byteLength":1632,
			"byteOffset":86520,
			"target":34962
		}
	],
	"samplers":[
		{
			"magFilter":9729,
			"minFilter":9987
		}
	],
	"buffers":[
		{
			"byteLength":88152,
			"uri":"Circle.bin"
		}
	]
}
